<!DOCTYPE svg PUBLIC "-//W3C//DTD SVG 1.1//EN" "http://www.w3.org/Graphics/SVG/1.1/DTD/svg11.dtd">
<!-- Uploaded to: SVG Repo, www.svgrepo.com, Transformed by: SVG Repo Mixer Tools -->
<svg fill="#000000" width="256px" height="256px" viewBox="0 0 24 24" id="window-7" data-name="Flat Color" xmlns="http://www.w3.org/2000/svg" class="icon flat-color">
<g id="SVGRepo_bgCarrier" stroke-width="0"/>
<g id="SVGRepo_tracerCarrier" stroke-linecap="round" stroke-linejoin="round"/>
<g id="SVGRepo_iconCarrier">
<path id="secondary" d="M8.52,12.49a13.23,13.23,0,0,0,3.91-9.43,1.05,1.05,0,0,1,.27-.75A1,1,0,0,1,13.43,2H19a1,1,0,0,1,1,1V19a1,1,0,0,1-1,1H11.83a1,1,0,0,1-1-.87c-.5-3.71-2.05-5-2.22-5.1L8.53,14a1,1,0,0,1-.32-.73A1,1,0,0,1,8.52,12.49Z" style="fill: #2ca9bc;"/>
<path id="primary" d="M6,2h8.44v.94A15.52,15.52,0,0,1,10.6,13.22C13,16.07,13,20.78,13,21a1,1,0,0,1-1,1H6a2,2,0,0,1-2-2V4A2,2,0,0,1,6,2Z" style="fill: #000000;"/>
</g>
</svg>